<svg width="140" height="54" viewBox="0 0 140 54" fill="none" xmlns="http://www.w3.org/2000/svg">
<path d="M36.8101 34.9858C40.4708 32.5012 41.8697 27.7788 40.1505 23.71C38.4312 19.6411 34.0733 17.3608 29.7449 18.265C25.4164 19.1693 22.3248 23.0059 22.3629 27.426L22.3629 41.6165C22.4 45.999 18.8107 49.1426 14.4283 49.1889L14.4283 27.5099C14.3478 18.0145 21.9794 10.2364 31.4746 10.1362C31.6231 10.1346 31.7709 10.135 31.9181 10.1371C44.5589 10.3248 49.1724 26.9165 38.5764 33.8342L36.8101 34.9858Z" fill="#4DA1FF"/>
<path d="M26.4262 18.9719C22.7656 21.4566 21.3666 26.179 23.0858 30.2478C24.8051 34.3166 29.163 36.597 33.4914 35.6928C37.8199 34.7885 40.9115 30.9518 40.8735 26.5318L40.8735 12.3412C40.8364 7.95877 44.4256 4.81517 48.808 4.76891L48.808 26.4479C48.8885 35.9432 41.2569 43.7214 31.7618 43.8216C31.6132 43.8231 31.4654 43.8228 31.3182 43.8206C18.6774 43.6329 14.0639 27.0413 24.6599 20.1236L26.4262 18.9719Z" fill="#4DA1FF"/>
<path d="M31.419 29.4633L31.4015 31.5878C33.9435 31.6152 36.0211 29.5769 36.042 27.0348L33.9176 27.0117C33.9063 28.3805 32.7877 29.478 31.419 29.4633Z" fill="#4DA1FF" fill-opacity="0.3"/>
<path d="M31.4047 31.5995L31.4189 30.7404L31.4249 29.4851C30.427 29.4755 29.5328 28.8656 29.1595 27.9399C28.7861 27.0142 29.0071 25.955 29.7194 25.2562C30.4316 24.5574 31.4949 24.3566 32.4133 24.7475C33.3317 25.1383 33.9245 26.0439 33.9151 27.0419L33.9151 30.7404C33.9151 30.7404 35.982 29.4851 36.0299 27.0624C36.0624 25.4142 35.2072 23.8752 33.7901 23.0321C32.3731 22.1891 30.6128 22.172 29.1804 22.9874C27.7479 23.8028 26.8641 25.3249 26.8659 26.9734C26.842 29.5036 28.8742 31.5748 31.4047 31.5995Z" fill="#4DA1FF" fill-opacity="0.29846"/>
<path d="M30.0683 29.0262C29.0909 28.3628 28.7174 27.102 29.1764 26.0157C29.6355 24.9294 30.799 24.3205 31.9546 24.562C33.1102 24.8034 33.9356 25.8277 33.9255 27.0078L33.9255 30.8757C34.4576 30.2811 35.6468 30.4001 36.0439 27.3477L36.0439 27.0302C36.0654 24.4951 34.0278 22.4184 31.4928 22.3917C31.4531 22.3913 31.4137 22.3914 31.3744 22.3919C27.9995 22.4421 26.7677 26.8718 29.5967 28.7187L30.0683 29.0262Z" fill="#4DA1FF"/>
<path d="M63.535 31.1304V40.652H56.9697V13.5078H67.6047C70.8298 13.5078 73.287 14.3141 74.9763 15.9266C76.6656 17.5135 77.5103 19.6636 77.5103 22.3767C77.5103 24.066 77.1263 25.5762 76.3585 26.9072C75.6162 28.2125 74.5028 29.2492 73.0182 30.017C71.5337 30.7593 69.7292 31.1304 67.6047 31.1304H63.535ZM66.8753 25.8705C69.5116 25.8705 70.8298 24.7059 70.8298 22.3767C70.8298 19.9963 69.5116 18.8061 66.8753 18.8061H63.535V25.8705H66.8753Z" fill="#4DA1FF"/>
<path d="M88.8802 18.9597C90.5183 18.9597 91.926 19.3308 93.1034 20.0731C94.2808 20.8154 95.1511 21.8264 95.7142 23.1062V19.2284H102.241V40.652H95.7142V36.7743C95.1511 38.0541 94.2808 39.0651 93.1034 39.8074C91.926 40.5497 90.5183 40.9208 88.8802 40.9208C87.1141 40.9208 85.5271 40.4857 84.1194 39.6154C82.7372 38.7196 81.6366 37.4398 80.8175 35.7761C80.024 34.1123 79.6273 32.1671 79.6273 29.9402C79.6273 27.6878 80.024 25.7425 80.8175 24.1044C81.6366 22.4407 82.7372 21.1737 84.1194 20.3035C85.5271 19.4076 87.1141 18.9597 88.8802 18.9597ZM90.9918 24.7187C89.584 24.7187 88.445 25.1794 87.5748 26.1009C86.7301 27.0223 86.3078 28.3021 86.3078 29.9402C86.3078 31.5784 86.7301 32.8581 87.5748 33.7796C88.445 34.701 89.584 35.1618 90.9918 35.1618C92.374 35.1618 93.5002 34.6882 94.3704 33.7412C95.2663 32.7942 95.7142 31.5272 95.7142 29.9402C95.7142 28.3277 95.2663 27.0607 94.3704 26.1393C93.5002 25.1922 92.374 24.7187 90.9918 24.7187Z" fill="#4DA1FF"/>
<path d="M114.901 18.9597C116.539 18.9597 117.947 19.3308 119.124 20.0731C120.301 20.8154 121.159 21.8264 121.696 23.1062V12.2408H128.262V40.652H121.696V36.7743C121.159 38.0541 120.301 39.0651 119.124 39.8074C117.947 40.5497 116.539 40.9208 114.901 40.9208C113.135 40.9208 111.548 40.4857 110.14 39.6154C108.758 38.7196 107.657 37.4398 106.838 35.7761C106.045 34.1123 105.648 32.1671 105.648 29.9402C105.648 27.6878 106.045 25.7425 106.838 24.1044C107.657 22.4407 108.758 21.1737 110.14 20.3035C111.548 19.4076 113.135 18.9597 114.901 18.9597ZM117.012 24.7187C115.605 24.7187 114.466 25.1794 113.595 26.1009C112.751 27.0223 112.328 28.3021 112.328 29.9402C112.328 31.5784 112.751 32.8581 113.595 33.7796C114.466 34.701 115.605 35.1618 117.012 35.1618C118.395 35.1618 119.521 34.6882 120.391 33.7412C121.287 32.7942 121.735 31.5272 121.735 29.9402C121.735 28.3277 121.287 27.0607 120.391 26.1393C119.521 25.1922 118.395 24.7187 117.012 24.7187Z" fill="#4DA1FF"/>
<path d="M132.168 13.2007C132.168 12.2024 132.526 11.3834 133.243 10.7435C133.959 10.078 134.906 9.74524 136.084 9.74524C137.261 9.74524 138.208 10.078 138.925 10.7435C139.642 11.3834 140 12.2024 140 13.2007C140 14.1733 139.642 14.9924 138.925 15.6578C138.208 16.2977 137.261 16.6177 136.084 16.6177C134.906 16.6177 133.959 16.2977 133.243 15.6578C132.526 14.9924 132.168 14.1733 132.168 13.2007ZM139.347 19.2284V40.652H132.782V19.2284H139.347Z" fill="#4DA1FF"/>
</svg>
