<svg width="64" height="54" viewBox="0 0 64 54" fill="none" xmlns="http://www.w3.org/2000/svg">
<path d="M36.8101 34.9858C40.4708 32.5012 41.8697 27.7788 40.1505 23.71C38.4312 19.6411 34.0733 17.3608 29.7449 18.265C25.4164 19.1693 22.3248 23.0059 22.3629 27.426L22.3629 41.6165C22.4 45.999 18.8107 49.1426 14.4283 49.1889L14.4283 27.5099C14.3478 18.0145 21.9794 10.2364 31.4746 10.1362C31.6231 10.1346 31.7709 10.135 31.9181 10.1371C44.5589 10.3248 49.1724 26.9165 38.5764 33.8342L36.8101 34.9858Z" fill="#4DA1FF"/>
<path d="M26.4262 18.9719C22.7656 21.4566 21.3666 26.179 23.0858 30.2478C24.8051 34.3166 29.163 36.597 33.4914 35.6928C37.8199 34.7885 40.9115 30.9518 40.8735 26.5318L40.8735 12.3412C40.8364 7.95877 44.4256 4.81517 48.808 4.76891L48.808 26.4479C48.8885 35.9432 41.2569 43.7214 31.7618 43.8216C31.6132 43.8231 31.4654 43.8228 31.3182 43.8206C18.6774 43.6329 14.0639 27.0413 24.6599 20.1236L26.4262 18.9719Z" fill="#4DA1FF"/>
<path d="M31.419 29.4633L31.4015 31.5878C33.9435 31.6152 36.0211 29.5769 36.042 27.0348L33.9176 27.0117C33.9063 28.3805 32.7877 29.478 31.419 29.4633Z" fill="#4DA1FF" fill-opacity="0.3"/>
<path d="M31.4047 31.5995L31.4189 30.7404L31.4249 29.4851C30.427 29.4755 29.5328 28.8656 29.1595 27.9399C28.7861 27.0142 29.0071 25.955 29.7194 25.2562C30.4316 24.5574 31.4949 24.3566 32.4133 24.7475C33.3317 25.1383 33.9245 26.0439 33.9151 27.0419L33.9151 30.7404C33.9151 30.7404 35.982 29.4851 36.0299 27.0624C36.0624 25.4142 35.2072 23.8752 33.7901 23.0321C32.3731 22.1891 30.6128 22.172 29.1804 22.9874C27.7479 23.8028 26.8641 25.3249 26.8659 26.9734C26.842 29.5036 28.8742 31.5748 31.4047 31.5995Z" fill="#4DA1FF" fill-opacity="0.29846"/>
<path d="M30.0683 29.0262C29.0909 28.3628 28.7174 27.102 29.1764 26.0157C29.6355 24.9294 30.799 24.3205 31.9546 24.562C33.1102 24.8034 33.9356 25.8277 33.9255 27.0078L33.9255 30.8757C34.4576 30.2811 35.6468 30.4001 36.0439 27.3477L36.0439 27.0302C36.0654 24.4951 34.0278 22.4184 31.4928 22.3917C31.4531 22.3913 31.4137 22.3914 31.3744 22.3919C27.9995 22.4421 26.7677 26.8718 29.5967 28.7187L30.0683 29.0262Z" fill="#4DA1FF"/>
</svg>
