<svg width="80" height="88" viewBox="0 0 80 88" fill="none" xmlns="http://www.w3.org/2000/svg">
<path fill-rule="evenodd" clip-rule="evenodd" d="M39.9998 6.66663C21.5998 6.66663 6.6665 21.6 6.6665 40C6.6665 58.4 21.5998 73.3333 39.9998 73.3333C58.3998 73.3333 73.3332 58.4 73.3332 40C73.3332 21.6 58.3998 6.66663 39.9998 6.66663ZM36.6664 66.4333C23.4997 64.8 13.333 53.6 13.333 40C13.333 37.9333 13.5997 35.9666 14.033 34.0333L29.9997 50V53.3333C29.9997 57 32.9997 60 36.6664 60V66.4333ZM53.3332 53.3333C56.3332 53.3333 58.7998 55.2666 59.6665 57.9666C63.9998 53.2333 66.6665 46.9333 66.6665 39.9999C66.6665 28.8333 59.7665 19.2666 49.9998 15.2999V16.6666C49.9998 20.3333 46.9998 23.3333 43.3332 23.3333H36.6665V29.9999C36.6665 31.8333 35.1665 33.3333 33.3332 33.3333H26.6665V39.9999H46.6665C48.4998 39.9999 49.9998 41.4999 49.9998 43.3333V53.3333H53.3332Z" fill="#4DA1FF"/>
</svg>
