<svg width="140" height="54" viewBox="0 0 140 54" fill="none" xmlns="http://www.w3.org/2000/svg">
<path d="M36.8102 34.9856C40.4709 32.5009 41.8699 27.7786 40.1506 23.7097C38.4314 19.6409 34.0734 17.3605 29.745 18.2648C25.4166 19.169 22.3249 23.0057 22.363 27.4258L22.363 41.6163C22.4001 45.9987 18.8108 49.1424 14.4284 49.1886L14.4284 27.5096C14.348 18.0143 21.9795 10.2362 31.4747 10.136C31.6232 10.1344 31.7711 10.1347 31.9182 10.1369C44.559 10.3246 49.1725 26.9162 38.5766 33.8339L36.8102 34.9856Z" fill="white"/>
<path d="M26.4261 18.9719C22.7654 21.4566 21.3665 26.179 23.0857 30.2478C24.805 34.3166 29.1629 36.597 33.4913 35.6928C37.8198 34.7885 40.9114 30.9518 40.8733 26.5318L40.8733 12.3412C40.8362 7.95877 44.4255 4.81517 48.8079 4.76891L48.8079 26.4479C48.8884 35.9432 41.2568 43.7214 31.7616 43.8216C31.6131 43.8231 31.4653 43.8228 31.3181 43.8206C18.6773 43.6329 14.0638 27.0413 24.6598 20.1236L26.4261 18.9719Z" fill="white"/>
<path d="M31.4189 29.4632L31.4014 31.5877C33.9434 31.6151 36.021 29.5767 36.0419 27.0346L33.9175 27.0116C33.9062 28.3804 32.7876 29.4779 31.4189 29.4632Z" fill="white" fill-opacity="0.3"/>
<path d="M31.4047 31.5994L31.4189 30.7403L31.4249 29.485C30.427 29.4754 29.5328 28.8655 29.1595 27.9398C28.7861 27.0141 29.0071 25.9549 29.7194 25.2561C30.4316 24.5572 31.4949 24.3565 32.4133 24.7473C33.3317 25.1382 33.9245 26.0438 33.9151 27.0418L33.9151 30.7403C33.9151 30.7403 35.982 29.485 36.0299 27.0623C36.0624 25.4141 35.2072 23.8751 33.7901 23.032C32.3731 22.189 30.6128 22.1719 29.1804 22.9873C27.7479 23.8026 26.8641 25.3248 26.8659 26.9733C26.842 29.5034 28.8742 31.5747 31.4047 31.5994Z" fill="white" fill-opacity="0.3"/>
<path d="M30.0684 29.0263C29.0911 28.3629 28.7176 27.1021 29.1766 26.0158C29.6356 24.9295 30.7991 24.3207 31.9547 24.5621C33.1103 24.8035 33.9357 25.8278 33.9256 27.0079L33.9256 30.8759C34.4577 30.2812 35.6469 30.4002 36.044 27.3478L36.044 27.0303C36.0655 24.4952 34.028 22.4186 31.4929 22.3918C31.4533 22.3914 31.4138 22.3915 31.3745 22.3921C27.9996 22.4422 26.7679 26.8719 29.5968 28.7188L30.0684 29.0263Z" fill="white"/>
<path d="M63.535 31.1303V40.6519H56.9697V13.5077H67.6047C70.8298 13.5077 73.287 14.3139 74.9763 15.9265C76.6656 17.5134 77.5103 19.6634 77.5103 22.3766C77.5103 24.0659 77.1263 25.5761 76.3585 26.907C75.6162 28.2124 74.5028 29.249 73.0182 30.0169C71.5337 30.7592 69.7292 31.1303 67.6047 31.1303H63.535ZM66.8753 25.8704C69.5116 25.8704 70.8298 24.7058 70.8298 22.3766C70.8298 19.9962 69.5116 18.806 66.8753 18.806H63.535V25.8704H66.8753Z" fill="white"/>
<path d="M88.8802 18.9596C90.5183 18.9596 91.926 19.3307 93.1034 20.073C94.2808 20.8153 95.1511 21.8263 95.7142 23.1061V19.2283H102.241V40.6519H95.7142V36.7742C95.1511 38.054 94.2808 39.065 93.1034 39.8073C91.926 40.5495 90.5183 40.9207 88.8802 40.9207C87.1141 40.9207 85.5271 40.4855 84.1194 39.6153C82.7372 38.7194 81.6366 37.4397 80.8175 35.7759C80.024 34.1122 79.6273 32.1669 79.6273 29.9401C79.6273 27.6877 80.024 25.7424 80.8175 24.1043C81.6366 22.4406 82.7372 21.1736 84.1194 20.3033C85.5271 19.4075 87.1141 18.9596 88.8802 18.9596ZM90.9918 24.7186C89.584 24.7186 88.445 25.1793 87.5748 26.1008C86.7301 27.0222 86.3078 28.302 86.3078 29.9401C86.3078 31.5782 86.7301 32.858 87.5748 33.7795C88.445 34.7009 89.584 35.1616 90.9918 35.1616C92.374 35.1616 93.5002 34.6881 94.3704 33.7411C95.2663 32.794 95.7142 31.527 95.7142 29.9401C95.7142 28.3276 95.2663 27.0606 94.3704 26.1392C93.5002 25.1921 92.374 24.7186 90.9918 24.7186Z" fill="white"/>
<path d="M114.901 18.9596C116.539 18.9596 117.947 19.3307 119.124 20.073C120.301 20.8153 121.159 21.8263 121.696 23.1061V12.2407H128.262V40.6519H121.696V36.7742C121.159 38.054 120.301 39.065 119.124 39.8073C117.947 40.5495 116.539 40.9207 114.901 40.9207C113.135 40.9207 111.548 40.4855 110.14 39.6153C108.758 38.7194 107.657 37.4397 106.838 35.7759C106.045 34.1122 105.648 32.1669 105.648 29.9401C105.648 27.6877 106.045 25.7424 106.838 24.1043C107.657 22.4406 108.758 21.1736 110.14 20.3033C111.548 19.4075 113.135 18.9596 114.901 18.9596ZM117.012 24.7186C115.605 24.7186 114.466 25.1793 113.595 26.1008C112.751 27.0222 112.328 28.302 112.328 29.9401C112.328 31.5782 112.751 32.858 113.595 33.7795C114.466 34.7009 115.605 35.1616 117.012 35.1616C118.395 35.1616 119.521 34.6881 120.391 33.7411C121.287 32.794 121.735 31.527 121.735 29.9401C121.735 28.3276 121.287 27.0606 120.391 26.1392C119.521 25.1921 118.395 24.7186 117.012 24.7186Z" fill="white"/>
<path d="M132.168 13.2005C132.168 12.2023 132.526 11.3832 133.243 10.7433C133.959 10.0779 134.906 9.74512 136.084 9.74512C137.261 9.74512 138.208 10.0779 138.925 10.7433C139.642 11.3832 140 12.2023 140 13.2005C140 14.1732 139.642 14.9922 138.925 15.6577C138.208 16.2976 137.261 16.6176 136.084 16.6176C134.906 16.6176 133.959 16.2976 133.243 15.6577C132.526 14.9922 132.168 14.1732 132.168 13.2005ZM139.347 19.2283V40.6519H132.782V19.2283H139.347Z" fill="white"/>
</svg>
