<svg width="70" height="95" viewBox="0 0 70 95" fill="none" xmlns="http://www.w3.org/2000/svg">
<g clip-path="url(#clip0)">
<path d="M69.4225 4.31029V90.7055C69.4225 93.0896 67.4963 95.0158 65.1122 95.0158H4.31029C1.92621 95 0 93.0738 0 90.7055V4.31029C0 1.92621 1.92621 0 4.31029 0H65.128C67.4963 0 69.4225 1.92621 69.4225 4.31029Z" fill="url(#paint0_linear)"/>
<path d="M65 7.94666V87.0533C65 89.2363 63.3075 91 61.2126 91H7.78735C5.69252 90.9855 4 89.2218 4 87.0533V7.94666C4 5.76371 5.69252 4 7.78735 4H61.2265C63.3075 4 65 5.76371 65 7.94666Z" fill="url(#paint1_linear)"/>
<path opacity="0.5" d="M58.5756 39.6767H10.8467C10.5309 39.6767 10.2783 39.4241 10.2783 39.1083V37.2926C10.2783 36.9769 10.5309 36.7242 10.8467 36.7242H58.5756C58.8914 36.7242 59.144 36.9769 59.144 37.2926V39.1083C59.1283 39.4241 58.8914 39.6767 58.5756 39.6767Z" fill="url(#paint2_linear)"/>
<path d="M17.752 22.472H12.424L11.336 25H8.824L14.056 13.608H16.072L21.304 25H18.84L17.752 22.472ZM16.936 20.568L15.096 16.296L13.256 20.568H16.936ZM30.2446 16.888V25H27.8606V23.8C27.6153 24.216 27.2686 24.5413 26.8206 24.776C26.3726 25.0107 25.866 25.128 25.3006 25.128C24.5966 25.128 23.9726 24.9573 23.4286 24.616C22.8953 24.2747 22.474 23.7893 22.1646 23.16C21.866 22.52 21.7166 21.784 21.7166 20.952C21.7166 20.12 21.866 19.3787 22.1646 18.728C22.474 18.0773 22.9006 17.576 23.4446 17.224C23.9886 16.8613 24.6073 16.68 25.3006 16.68C25.866 16.68 26.3726 16.8027 26.8206 17.048C27.2686 17.2933 27.6153 17.624 27.8606 18.04V16.888H30.2446ZM26.0046 23.288C26.602 23.288 27.0606 23.0853 27.3806 22.68C27.7006 22.2747 27.8606 21.688 27.8606 20.92C27.8606 20.152 27.7006 19.5653 27.3806 19.16C27.0606 18.744 26.602 18.536 26.0046 18.536C25.4073 18.536 24.9433 18.7493 24.6126 19.176C24.282 19.6027 24.1166 20.1947 24.1166 20.952C24.1166 21.7093 24.2766 22.2907 24.5966 22.696C24.9273 23.0907 25.3966 23.288 26.0046 23.288Z" fill="#B0F4FF"/>
<path d="M58.5755 17.0517H34.8926C34.5768 17.0517 34.3242 16.7991 34.3242 16.4833V14.6834C34.3242 14.3676 34.5768 14.115 34.8926 14.115H58.5755C58.8913 14.115 59.1439 14.3676 59.1439 14.6834V16.4991C59.1281 16.7991 58.8913 17.0517 58.5755 17.0517Z" fill="url(#paint3_linear)"/>
<path opacity="0.5" d="M51.5654 24.7249H34.8926C34.5768 24.7249 34.3242 24.4723 34.3242 24.1565V22.3408C34.3242 22.0251 34.5768 21.7725 34.8926 21.7725H51.5654C51.8811 21.7725 52.1338 22.0251 52.1338 22.3408V24.1565C52.118 24.4723 51.8811 24.7249 51.5654 24.7249Z" fill="url(#paint4_linear)"/>
<path opacity="0.5" d="M58.5756 48.2973H10.8467C10.5309 48.2973 10.2783 48.0447 10.2783 47.7289V45.9132C10.2783 45.5975 10.5309 45.3448 10.8467 45.3448H58.5756C58.8914 45.3448 59.144 45.5975 59.144 45.9132V47.7289C59.1283 48.0447 58.8914 48.2973 58.5756 48.2973Z" fill="url(#paint5_linear)"/>
<path opacity="0.5" d="M58.5756 56.9179H10.8467C10.5309 56.9179 10.2783 56.6653 10.2783 56.3495V54.5338C10.2783 54.2181 10.5309 53.9655 10.8467 53.9655H58.5756C58.8914 53.9655 59.144 54.2181 59.144 54.5338V56.3653C59.1283 56.6653 58.8914 56.9179 58.5756 56.9179Z" fill="url(#paint6_linear)"/>
<path opacity="0.5" d="M58.5756 65.5543H10.8467C10.5309 65.5543 10.2783 65.3017 10.2783 64.9859V63.1702C10.2783 62.8544 10.5309 62.6018 10.8467 62.6018H58.5756C58.8914 62.6018 59.144 62.8544 59.144 63.1702V64.9859C59.1283 65.3017 58.8914 65.5543 58.5756 65.5543Z" fill="url(#paint7_linear)"/>
<path opacity="0.5" d="M58.5756 74.1749H10.8467C10.5309 74.1749 10.2783 73.9223 10.2783 73.6065V71.7908C10.2783 71.475 10.5309 71.2224 10.8467 71.2224H58.5756C58.8914 71.2224 59.144 71.475 59.144 71.7908V73.6065C59.1283 73.9223 58.8914 74.1749 58.5756 74.1749Z" fill="url(#paint8_linear)"/>
<path opacity="0.5" d="M58.5756 82.7955H10.8467C10.5309 82.7955 10.2783 82.5429 10.2783 82.2271V80.4114C10.2783 80.0956 10.5309 79.843 10.8467 79.843H58.5756C58.8914 79.843 59.144 80.0956 59.144 80.4114V82.2271C59.1283 82.5429 58.8914 82.7955 58.5756 82.7955Z" fill="url(#paint9_linear)"/>
<path opacity="0.1" d="M69.4225 4.31029V90.7055C69.4225 93.0896 67.4963 95.0158 65.1122 95.0158H4.31029C1.92621 95 0 93.0738 0 90.7055V89.2056C37.0874 73.8906 54.3601 15.1571 58.2599 0H65.1122C67.4963 0 69.4225 1.92621 69.4225 4.31029Z" fill="#1A6FB5" fill-opacity="0.4"/>
</g>
<defs>
<linearGradient id="paint0_linear" x1="95" y1="126" x2="-6" y2="-5.5" gradientUnits="userSpaceOnUse">
<stop offset="0.3061" stop-color="#5BA7FC"/>
<stop offset="1" stop-color="#69B8FC"/>
</linearGradient>
<linearGradient id="paint1_linear" x1="8.6241" y1="7.04564" x2="57.9385" y2="78.0313" gradientUnits="userSpaceOnUse">
<stop offset="0.3061" stop-color="white"/>
<stop offset="1" stop-color="white"/>
</linearGradient>
<linearGradient id="paint2_linear" x1="10.2905" y1="38.2072" x2="59.1354" y2="38.2072" gradientUnits="userSpaceOnUse">
<stop stop-color="#6CBCFC"/>
<stop offset="1" stop-color="#458DFC"/>
</linearGradient>
<linearGradient id="paint3_linear" x1="34.3247" y1="15.5844" x2="59.1353" y2="15.5844" gradientUnits="userSpaceOnUse">
<stop stop-color="#6CBCFC"/>
<stop offset="1" stop-color="#458DFC"/>
</linearGradient>
<linearGradient id="paint4_linear" x1="34.3247" y1="23.2616" x2="52.1254" y2="23.2616" gradientUnits="userSpaceOnUse">
<stop stop-color="#6CBCFC"/>
<stop offset="1" stop-color="#458DFC"/>
</linearGradient>
<linearGradient id="paint5_linear" x1="10.2905" y1="46.8317" x2="59.1354" y2="46.8317" gradientUnits="userSpaceOnUse">
<stop stop-color="#6CBCFC"/>
<stop offset="1" stop-color="#458DFC"/>
</linearGradient>
<linearGradient id="paint6_linear" x1="10.2905" y1="55.4562" x2="59.1354" y2="55.4562" gradientUnits="userSpaceOnUse">
<stop stop-color="#6CBCFC"/>
<stop offset="1" stop-color="#458DFC"/>
</linearGradient>
<linearGradient id="paint7_linear" x1="10.2905" y1="64.0807" x2="59.1354" y2="64.0807" gradientUnits="userSpaceOnUse">
<stop stop-color="#6CBCFC"/>
<stop offset="1" stop-color="#458DFC"/>
</linearGradient>
<linearGradient id="paint8_linear" x1="10.2905" y1="72.7052" x2="59.1354" y2="72.7052" gradientUnits="userSpaceOnUse">
<stop stop-color="#6CBCFC"/>
<stop offset="1" stop-color="#458DFC"/>
</linearGradient>
<linearGradient id="paint9_linear" x1="10.2905" y1="81.3297" x2="59.1354" y2="81.3297" gradientUnits="userSpaceOnUse">
<stop stop-color="#6CBCFC"/>
<stop offset="1" stop-color="#458DFC"/>
</linearGradient>
<clipPath id="clip0">
<rect width="69.4225" height="95" fill="white"/>
</clipPath>
</defs>
</svg>
