<svg width="62" height="85" viewBox="0 0 62 85" fill="none" xmlns="http://www.w3.org/2000/svg">
<g clip-path="url(#clip0)">
<path d="M61.8575 26.4806L61.6658 66.2814L61.6339 73.9796C61.6019 80.0967 55.7883 85.0319 48.6331 84.9999L12.8891 84.8402C5.74985 84.7923 -0.0318111 79.8092 0.000131725 73.6762L0.223732 26.1771C0.239703 21.226 4.07285 17.0415 9.31148 15.652L9.32745 13.0965V11.7869L52.8815 11.9945L52.8656 15.8596C58.0882 17.313 61.8735 21.5135 61.8575 26.4806Z" fill="url(#paint0_linear)"/>
<path d="M56.1239 1.77283V2.1242L56.092 6.27678L56.06 10.3495V10.8446C56.06 11.6112 55.4212 12.2341 54.6545 12.2341H54.3191L52.2109 12.2182L49.895 12.2022L47.7868 12.1862L45.471 12.1702L43.3308 12.1383L41.0149 12.1223L38.9067 12.1064L36.5749 12.0904L34.4507 12.0744L32.1348 12.0584L30.0266 12.0265L27.7107 12.0105L25.6025 11.9945L23.2707 11.9786L21.1465 11.9626L18.8466 11.9466L16.7383 11.9307L14.4225 11.9147L12.2983 11.8987L9.98242 11.8828L7.85822 11.8668H7.52282C6.75619 11.8668 6.1333 11.2279 6.1333 10.4613V10.4453V10.0939L6.19719 1.88463V1.38952C6.19719 0.622886 6.83604 0 7.61864 0H7.95404L12.3941 0.0319429L16.8342 0.0638858L18.9584 0.0798572L21.2742 0.0958286L23.3825 0.1118L27.8065 0.159714L30.1224 0.175686L32.2306 0.191657L34.5465 0.207629L36.6547 0.2236L38.9706 0.239572L41.0788 0.255543L43.3947 0.271514L45.5029 0.287486L47.8507 0.319429L49.9589 0.3354L52.2748 0.351372L54.399 0.367343H54.7344C55.517 0.383315 56.1239 1.0062 56.1239 1.77283Z" fill="url(#paint1_linear)"/>
<path d="M56.1239 2.14006L56.092 6.27667L56.06 10.3494L54.1594 10.3334L51.6359 10.3174L49.3201 10.3015H46.7806L44.4648 10.2855L41.9413 10.2695L39.6254 10.2536H37.0859L34.7701 10.2376L32.2306 10.2216L29.9307 10.2056H27.3913L25.0754 10.1897L22.536 10.1737L20.2201 10.1577H17.6966L15.3808 10.1418L12.8413 10.1258L10.5254 10.1098H8.00196L6.1333 10.0938L6.19719 1.88452L10.6372 1.90049L15.4766 1.93244L17.7925 1.94841L20.3319 1.96438H22.6478L27.4871 1.99632L30.0266 2.01229H32.3424L34.8819 2.02826L37.1818 2.04424L39.7212 2.06021H42.0371L44.5766 2.07618L46.8764 2.09215L49.4159 2.10812H51.7318L54.2712 2.12409L56.1239 2.14006Z" fill="url(#paint2_linear)"/>
<path d="M61.8105 34.8842L0.176758 34.5928L0.0475233 61.9199L61.6813 62.2114L61.8105 34.8842Z" fill="#F7F9FC"/>
<path d="M61.8218 34.8839L0.187988 34.5925L0.164732 39.5117L61.7985 39.8031L61.8218 34.8839Z" fill="#FBFCF7"/>
<path d="M30.5869 52.0654H30.5137C29.5273 54.4678 27.9307 55.6689 25.7236 55.6689C24.1025 55.6689 22.7695 55.0244 21.7246 53.7354C20.6699 52.4463 20.1426 50.7812 20.1426 48.7402C20.1426 46.6602 20.6357 45 21.6221 43.7598C22.5986 42.5195 23.8633 41.8994 25.416 41.8994C27.7109 41.8994 29.4004 43.2275 30.4844 45.8838H30.543C30.9629 44.458 31.6562 43.3545 32.623 42.5732C33.5801 41.7822 34.6592 41.3867 35.8604 41.3867C37.7158 41.3867 39.1807 42.0752 40.2549 43.4521C41.3291 44.8193 41.8662 46.7334 41.8662 49.1943C41.8662 51.3232 41.3438 53.042 40.2988 54.3506C39.2441 55.6494 37.8525 56.2988 36.124 56.2988C33.6143 56.2988 31.7686 54.8877 30.5869 52.0654ZM25.8115 46.25C25.0986 46.25 24.5322 46.4795 24.1123 46.9385C23.6826 47.3877 23.4678 47.9883 23.4678 48.7402C23.4678 49.4727 23.6924 50.083 24.1416 50.5713C24.5811 51.0498 25.1475 51.2891 25.8408 51.2891C27.1494 51.2891 28.1406 50.4492 28.8145 48.7695C28.1211 47.0898 27.1201 46.25 25.8115 46.25ZM32.3447 48.9746C33.1162 50.9375 34.2979 51.9189 35.8896 51.9189C36.6514 51.9189 37.2812 51.6211 37.7793 51.0254C38.2773 50.4199 38.5264 49.6875 38.5264 48.8281C38.5264 47.9004 38.2822 47.1533 37.7939 46.5869C37.3057 46.0205 36.6611 45.7373 35.8604 45.7373C34.2588 45.7373 33.0869 46.8164 32.3447 48.9746Z" fill="#4DA1FF"/>
<path opacity="0.08" d="M6.1333 1.77292V2.12429L6.16524 6.27686L6.19719 10.3336V10.8287C6.19719 11.5954 6.83604 12.2182 7.60267 12.2182H7.93807L10.0623 12.2023L12.3781 12.1863L14.4864 12.1703L16.8022 12.1544L18.9105 12.1384L21.2263 12.1224L23.3345 12.1064L25.6504 12.0905L27.7746 12.0745L30.0905 12.0585L32.1987 12.0426L34.5145 12.0266L36.6228 12.0106L38.9386 11.9946L41.0628 11.9787L43.3787 11.9627L45.4869 11.9467L47.8028 11.9308L49.911 11.9148L52.2269 11.8988L54.3511 11.8828H54.6865C55.4531 11.8828 56.076 11.244 56.076 10.4774V10.4614V10.11C31.3682 11.1801 7.52282 0.367432 7.52282 0.367432C6.75619 0.383403 6.1333 1.00629 6.1333 1.77292Z" fill="#1A6FB5"/>
</g>
<defs>
<linearGradient id="paint0_linear" x1="0.000131398" y1="11.3333" x2="57.139" y2="90.1944" gradientUnits="userSpaceOnUse">
<stop stop-color="#6CBCFC"/>
<stop offset="1" stop-color="#458DFC"/>
</linearGradient>
<linearGradient id="paint1_linear" x1="-629.93" y1="-39.931" x2="-27.6038" y2="2.02206" gradientUnits="userSpaceOnUse">
<stop stop-color="#B0F4FF"/>
<stop offset="0.0525488" stop-color="#A9F2FF"/>
<stop offset="0.2879" stop-color="#8DE8FE"/>
<stop offset="0.5247" stop-color="#79E1FD"/>
<stop offset="0.7618" stop-color="#6DDDFC"/>
<stop offset="1" stop-color="#69DCFC"/>
</linearGradient>
<linearGradient id="paint2_linear" x1="6.1402" y1="6.11301" x2="56.126" y2="6.11301" gradientUnits="userSpaceOnUse">
<stop stop-color="#B0F4FF"/>
<stop offset="0.0525488" stop-color="#A9F2FF"/>
<stop offset="0.2879" stop-color="#8DE8FE"/>
<stop offset="0.5247" stop-color="#79E1FD"/>
<stop offset="0.7618" stop-color="#6DDDFC"/>
<stop offset="1" stop-color="#69DCFC"/>
</linearGradient>
<clipPath id="clip0">
<rect width="61.8574" height="85" fill="white"/>
</clipPath>
</defs>
</svg>
