<svg width="32" height="30" viewBox="0 0 32 30" fill="none" xmlns="http://www.w3.org/2000/svg">
<path d="M12.3864 14.1279L15.4127 16.9541L28.1924 28.8872C28.5279 29.2012 28.9583 29.3582 29.3887 29.3582C29.8597 29.3582 30.3308 29.1711 30.6731 28.8003C31.3475 28.072 31.2593 26.9329 30.4833 26.3115L15.4127 14.2949L13.7521 12.972L12.3864 14.1279Z" fill="url(#paint0_linear)"/>
<path d="M15.5448 17.0978L18.5237 19.8773L18.7982 17.021L17.1681 15.7214L15.5448 17.0978Z" fill="#3A81D6" fill-opacity="0.8"/>
<path d="M0.464014 9.7549C0.464014 15.1435 4.89674 19.5131 10.3597 19.5131C13.8028 19.5131 16.8359 17.7793 18.6084 15.1468C19.6488 13.6034 20.2554 11.7493 20.2554 9.7549C20.2554 4.36632 15.8226 0 10.3597 0C7.89255 0 5.63891 0.888631 3.90717 2.35855C1.79925 4.14917 0.464014 6.79836 0.464014 9.7549Z" fill="url(#paint1_linear)"/>
<path d="M10.3598 17.355C6.10175 17.355 2.64994 13.9523 2.64994 9.75486C2.64994 5.55742 6.10175 2.15472 10.3598 2.15472C14.6178 2.15472 18.0696 5.55742 18.0696 9.75486C18.0696 13.9523 14.6178 17.355 10.3598 17.355Z" fill="white"/>
<path opacity="0.06" d="M0.464186 9.75493C0.464186 15.1435 4.89691 19.5132 10.3599 19.5132C13.803 19.5132 16.8361 17.7793 18.6085 15.1469C7.44877 14.2515 4.50718 4.93094 3.90395 2.35858C1.79943 4.14921 0.464186 6.7984 0.464186 9.75493Z" fill="#1A6FB5" fill-opacity="0.5"/>
<defs>
<linearGradient id="paint0_linear" x1="29.2354" y1="27.5044" x2="13.4664" y2="12.9621" gradientUnits="userSpaceOnUse">
<stop stop-color="#67C3F3"/>
<stop offset="1" stop-color="#5A98F2"/>
</linearGradient>
<linearGradient id="paint1_linear" x1="14.4526" y1="0.689304" x2="7.13582" y2="17.3753" gradientUnits="userSpaceOnUse">
<stop stop-color="#67C3F3"/>
<stop offset="1" stop-color="#5A98F2"/>
</linearGradient>
</defs>
</svg>
