<svg width="68" height="95" viewBox="0 0 68 95" fill="none" xmlns="http://www.w3.org/2000/svg">
<g clip-path="url(#clip0)">
<path d="M64.9697 0H2.32971C1.04143 0 0 1.02822 0 2.30017V92.7074C0 93.9794 1.04143 95.0076 2.32971 95.0076H64.9697C66.258 95.0076 67.2994 93.9794 67.2994 92.7074V2.30017C67.2917 1.02822 66.2502 0 64.9697 0Z" fill="url(#paint0_linear)"/>
<path d="M60.8578 4.09766H6.43353C5.18381 4.09766 4.16553 5.10303 4.16553 6.34451V81.0923C4.16553 82.3338 5.18381 83.3316 6.43353 83.3316H60.8578C62.1152 83.3316 63.1258 82.3262 63.1258 81.0923V6.34451C63.1258 5.10303 62.1152 4.09766 60.8578 4.09766Z" fill="white"/>
<path d="M33.6498 92.5476C35.5414 92.5476 37.0749 91.0335 37.0749 89.1659C37.0749 87.2982 35.5414 85.7842 33.6498 85.7842C31.7581 85.7842 30.2246 87.2982 30.2246 89.1659C30.2246 91.0335 31.7581 92.5476 33.6498 92.5476Z" fill="white"/>
<path d="M53.0358 51.0149H14.2561C13.2764 51.0149 12.4741 50.2228 12.4741 49.2555C12.4741 48.2882 13.2764 47.4961 14.2561 47.4961H53.0281C54.0078 47.4961 54.8101 48.2882 54.8101 49.2555C54.8101 50.2228 54.0155 51.0149 53.0358 51.0149Z" fill="url(#paint1_linear)"/>
<path opacity="0.6" d="M46.4711 60.7641H13.6082C12.9834 60.7641 12.4819 60.2614 12.4819 59.6521V59.5302C12.4819 58.9133 12.9911 58.4182 13.6082 58.4182H46.4711C47.0959 58.4182 47.5973 58.9209 47.5973 59.5302V59.6521C47.6051 60.2614 47.0959 60.7641 46.4711 60.7641Z" fill="url(#paint2_linear)"/>
<path opacity="0.3" d="M40.2147 66.9563H13.5001C12.937 66.9563 12.4741 66.4993 12.4741 65.9433V65.6082C12.4741 65.0522 12.937 64.5952 13.5001 64.5952H40.207C40.7701 64.5952 41.233 65.0522 41.233 65.6082V65.9433C41.233 66.4993 40.7701 66.9563 40.2147 66.9563Z" fill="url(#paint3_linear)"/>
<path opacity="0.6" d="M43.5782 72.6913H13.5619C12.9679 72.6913 12.4819 72.2115 12.4819 71.625V71.4118C12.4819 70.8253 12.9679 70.3455 13.5619 70.3455H43.5782C44.1722 70.3455 44.6582 70.8253 44.6582 71.4118V71.625C44.6582 72.2039 44.1722 72.6913 43.5782 72.6913Z" fill="url(#paint4_linear)"/>
<path d="M31.375 15.125H17.625C16.1125 15.125 14.875 16.3625 14.875 17.875V39.875L24.5 35.75L34.125 39.875V17.875C34.125 16.3625 32.8875 15.125 31.375 15.125Z" fill="#B0F4FF"/>
</g>
<defs>
<linearGradient id="paint0_linear" x1="4.07698" y1="45.0301" x2="67.3445" y2="50.4539" gradientUnits="userSpaceOnUse">
<stop stop-color="#6CBCFC"/>
<stop offset="1" stop-color="#458DFC"/>
</linearGradient>
<linearGradient id="paint1_linear" x1="54.8138" y1="49.2569" x2="12.4814" y2="49.2569" gradientUnits="userSpaceOnUse">
<stop stop-color="#6CBCFC"/>
<stop offset="1" stop-color="#458DFC"/>
</linearGradient>
<linearGradient id="paint2_linear" x1="47.6028" y1="59.5878" x2="12.4815" y2="59.5878" gradientUnits="userSpaceOnUse">
<stop stop-color="#6CBCFC"/>
<stop offset="1" stop-color="#458DFC"/>
</linearGradient>
<linearGradient id="paint3_linear" x1="41.2338" y1="65.78" x2="12.4814" y2="65.78" gradientUnits="userSpaceOnUse">
<stop stop-color="#6CBCFC"/>
<stop offset="1" stop-color="#458DFC"/>
</linearGradient>
<linearGradient id="paint4_linear" x1="44.6576" y1="71.5123" x2="12.4815" y2="71.5123" gradientUnits="userSpaceOnUse">
<stop stop-color="#6CBCFC"/>
<stop offset="1" stop-color="#458DFC"/>
</linearGradient>
<clipPath id="clip0">
<rect width="67.2917" height="95" fill="white"/>
</clipPath>
</defs>
</svg>
